<?xml version="1.0" standalone="no"?>
<!DOCTYPE svg PUBLIC "-//W3C//DTD SVG 20010904//EN"
 "http://www.w3.org/TR/2001/REC-SVG-20010904/DTD/svg10.dtd">
<svg version="1.0" xmlns="http://www.w3.org/2000/svg"
 width="5768.000000pt" height="205.000000pt" viewBox="0 0 5768.000000 205.000000"
 preserveAspectRatio="xMidYMid meet">

<g transform="translate(0.000000,205.000000) scale(0.100000,-0.100000)"
fill="#000000" stroke="none">
<path d="M0 1025 l0 -1025 1013 0 1012 0 23 78 c32 109 62 283 62 364 0 61 -2
69 -17 66 -13 -2 -19 -14 -21 -41 -3 -29 -7 -37 -23 -37 -17 0 -19 7 -19 61 0
65 12 157 36 282 15 75 15 78 -5 103 -32 41 -27 78 19 133 39 47 51 73 29 69
-6 -2 -14 4 -16 12 -4 13 -3 13 6 0 12 -17 15 -1 5 25 -5 13 -8 14 -15 3 -7
-10 -9 -10 -9 0 0 26 32 87 80 151 62 84 78 139 62 213 -6 29 -13 78 -16 109
l-4 57 51 33 c72 47 127 47 167 2 39 -43 50 -90 50 -211 0 -109 20 -207 51
-253 31 -44 36 -105 27 -330 -1 -41 3 -64 17 -85 24 -37 106 -274 99 -286 -10
-16 -146 -79 -160 -74 -7 3 -16 17 -20 31 -3 14 -10 25 -14 25 -12 0 5 -55 30
-98 12 -20 33 -65 46 -101 14 -36 45 -100 69 -141 24 -41 51 -94 60 -117 l17
-43 2073 0 2073 0 6 32 c3 18 0 73 -6 123 -19 154 -22 603 -4 730 8 61 18 136
21 167 3 31 14 67 24 80 41 54 64 107 72 163 5 33 21 103 35 155 15 52 28 118
28 147 1 47 4 54 36 77 52 38 81 48 119 42 63 -10 98 -60 108 -158 3 -35 10
-69 16 -76 9 -12 17 -46 52 -247 8 -44 28 -127 45 -185 17 -58 38 -127 46
-155 59 -206 71 -469 29 -656 l-25 -110 32 -64 32 -65 1963 0 c1080 0 1963 4
1963 8 0 4 -4 12 -9 17 -8 9 9 186 24 250 2 12 9 63 15 115 6 52 18 122 27
157 14 51 15 66 4 86 -11 20 -7 38 24 131 19 60 33 117 30 127 -3 10 4 51 16
91 12 40 27 105 34 144 12 64 41 139 168 433 28 65 39 78 91 113 32 22 74 42
95 45 47 5 97 -25 117 -72 11 -27 20 -35 39 -35 19 0 26 -7 31 -28 3 -15 21
-70 39 -122 18 -52 43 -126 55 -165 12 -38 34 -108 50 -155 15 -47 40 -128 55
-180 15 -52 38 -126 51 -163 30 -86 30 -111 -1 -135 -13 -11 -22 -22 -19 -25
4 -3 21 -41 40 -83 32 -73 33 -79 18 -102 -14 -22 -14 -28 5 -75 12 -29 21
-63 20 -77 -1 -14 4 -46 12 -72 11 -42 11 -49 -4 -65 -11 -13 -13 -23 -7 -33
5 -8 9 -31 8 -50 0 -19 2 -45 6 -57 l7 -23 1709 0 1708 0 -6 22 c-4 15 2 27
23 44 28 22 28 22 6 33 -22 12 -29 55 -11 66 21 13 10 32 -17 28 -20 -3 -36 4
-55 22 -37 34 -35 48 8 82 36 27 36 28 13 33 -29 7 -38 50 -15 70 9 7 16 21
16 31 0 10 4 21 10 24 6 3 10 15 10 25 0 14 41 55 88 86 2 1 -6 12 -17 23 -17
17 -19 25 -11 41 6 11 14 20 18 20 5 0 27 14 50 31 35 26 40 33 30 48 -11 18
-10 24 17 71 16 27 11 40 -7 22 -19 -19 -56 -14 -68 8 -13 25 -1 51 34 69 21
12 23 17 15 33 -8 15 -7 24 4 36 8 9 17 26 19 37 2 11 20 29 40 40 36 20 36
21 20 48 -13 21 -14 31 -6 44 9 14 7 20 -10 28 -52 26 -14 84 145 216 55 46
130 110 166 142 36 31 71 57 79 57 21 0 147 64 197 100 83 59 170 44 203 -35
9 -23 21 -35 33 -35 25 0 77 -71 131 -180 25 -49 66 -110 97 -144 30 -32 52
-64 50 -71 -3 -6 5 -28 16 -48 12 -20 37 -62 56 -94 18 -32 49 -80 68 -106 26
-34 34 -55 30 -73 -3 -19 7 -44 34 -87 54 -86 79 -134 79 -150 0 -8 7 -20 15
-27 18 -15 20 -51 4 -67 -8 -8 -3 -22 15 -50 30 -45 26 -70 -11 -79 -22 -6
-24 -10 -18 -46 5 -25 3 -44 -6 -54 -9 -11 -9 -18 -1 -26 15 -15 15 -51 0 -66
-9 -9 -6 -18 12 -37 21 -22 23 -29 13 -54 -10 -27 -7 -32 33 -72 24 -24 47
-51 50 -61 5 -17 63 -18 1307 -17 716 1 1293 4 1282 6 -11 3 -29 12 -40 19
-11 8 -26 14 -35 14 -19 1 -65 40 -73 63 -4 9 -16 17 -27 17 -11 0 -36 7 -55
14 -27 12 -35 21 -35 40 0 34 23 44 121 52 77 7 81 8 61 22 -23 15 -29 51 -11
69 7 7 3 18 -15 36 -14 14 -26 32 -26 39 0 7 -9 19 -20 26 -31 19 -26 61 9 73
l30 10 -17 44 c-15 41 -15 45 1 63 16 17 16 21 2 32 -8 7 -15 23 -15 36 0 12
-5 26 -11 29 -14 9 -2 105 15 123 7 7 36 15 64 19 57 6 67 17 25 28 -38 9 -53
23 -53 50 0 31 27 51 90 68 l55 14 -40 8 c-75 15 -113 60 -86 103 9 15 92 42
128 42 13 0 26 7 30 15 8 22 48 41 118 55 33 6 98 20 145 31 236 52 395 67
413 37 10 -14 20 -8 81 46 39 34 105 90 146 123 41 33 86 72 99 87 14 14 34
26 46 26 11 0 29 6 40 13 11 7 36 20 55 27 19 7 60 31 91 52 96 66 168 59 209
-21 12 -25 28 -41 41 -43 12 -2 27 -12 33 -23 20 -35 38 -42 127 -48 176 -13
465 -68 566 -108 67 -27 87 -49 79 -86 -5 -22 -2 -34 14 -48 11 -10 20 -23 20
-30 0 -21 -44 -53 -83 -60 -76 -14 -58 -39 37 -50 103 -11 155 -26 186 -52 30
-25 40 -66 20 -78 -6 -4 -21 -23 -34 -43 -13 -21 -35 -50 -50 -65 -14 -15 -26
-32 -26 -36 0 -5 21 -14 48 -20 87 -22 151 -57 158 -87 9 -35 -5 -56 -47 -70
-18 -6 -35 -17 -37 -23 -6 -18 19 -73 45 -100 28 -29 29 -51 3 -83 l-19 -25
29 -22 c31 -22 42 -72 20 -86 -6 -3 -8 -16 -4 -29 3 -14 -2 -31 -14 -46 -26
-32 -11 -85 30 -106 73 -38 55 -103 -35 -128 -85 -24 -209 -38 -306 -35 -68 3
-91 1 -91 -8 0 -10 172 -13 825 -13 l825 0 0 55 0 55 33 1 32 1 -31 9 -32 9
-1 105 c0 58 1 105 3 105 29 0 185 34 205 45 39 21 7 18 -100 -10 -51 -13 -97
-25 -102 -25 -4 0 -6 91 -5 202 l3 203 30 14 30 15 -30 6 -30 5 -3 187 -2 186
57 13 c50 11 54 13 33 20 -14 4 -40 7 -57 8 l-33 1 0 65 c0 55 3 66 21 76 68
36 466 64 899 63 350 0 454 -9 520 -43 25 -13 69 -20 145 -25 61 -4 121 -9
135 -12 26 -5 91 44 252 187 36 32 73 59 82 59 18 0 180 84 215 111 61 48 150
28 179 -41 12 -29 23 -40 39 -40 13 0 28 -12 41 -33 19 -34 20 -34 118 -41
184 -13 482 -69 572 -107 24 -11 48 -16 53 -13 6 3 41 0 80 -6 63 -11 72 -10
90 6 18 16 25 16 141 -4 145 -25 428 -84 536 -111 430 -110 608 -163 659 -197
21 -13 24 -22 20 -50 -3 -19 -2 -34 4 -34 5 0 9 33 9 74 0 82 -4 77 75 92 37
6 38 8 15 14 -14 5 -40 8 -58 9 l-33 1 3 68 3 67 40 12 c22 7 58 16 80 20 38
6 35 7 -40 17 l-80 11 -3 58 c-3 58 -3 59 24 55 23 -2 28 1 29 21 1 13 9 28
18 33 10 5 17 14 17 20 0 6 7 19 16 29 15 17 14 18 -20 24 -42 8 -59 26 -54
57 2 15 11 24 26 26 20 3 229 -57 314 -90 15 -5 32 -8 39 -6 6 2 -60 28 -147
58 -88 29 -181 61 -209 71 l-50 17 -3 91 c-3 99 -1 102 55 80 15 -6 52 -13 81
-15 69 -6 348 -95 642 -204 47 -17 135 -47 195 -65 61 -19 200 -71 310 -115
175 -71 312 -115 476 -153 l47 -11 88 71 c49 39 100 83 113 97 14 14 32 26 42
26 19 0 181 83 218 111 60 47 146 27 178 -42 13 -27 24 -39 40 -39 13 0 28
-12 41 -33 l20 -34 101 -7 c55 -4 165 -18 243 -32 79 -14 159 -27 178 -30 43
-7 224 56 249 86 19 23 304 150 461 205 273 95 754 248 875 278 11 2 -7523 5
-16742 6 l-16763 1 0 -1025z"/>
<path d="M33620 2046 c0 -2 9 -6 20 -9 11 -3 20 -1 20 4 0 5 -9 9 -20 9 -11 0
-20 -2 -20 -4z"/>
<path d="M34296 1938 c200 -133 205 -136 179 -110 -39 39 -309 222 -329 222
-11 0 56 -50 150 -112z"/>
<path d="M34576 2042 c5 -4 65 -44 134 -89 303 -195 486 -318 630 -426 112
-83 159 -113 170 -107 8 5 54 43 102 84 48 42 93 76 100 76 17 0 162 74 212
108 55 38 114 37 155 -2 16 -15 32 -39 35 -52 5 -17 13 -24 30 -24 17 0 30
-10 44 -33 l20 -34 99 -7 c55 -4 165 -18 244 -32 246 -43 216 -47 274 32 99
136 254 331 334 422 l82 92 -1337 0 c-736 0 -1334 -4 -1328 -8z"/>
<path d="M38430 2046 c0 -2 9 -6 20 -9 11 -3 20 -1 20 4 0 5 -9 9 -20 9 -11 0
-20 -2 -20 -4z"/>
<path d="M39110 1934 c192 -127 212 -139 161 -97 -78 65 -297 213 -316 213
-10 0 59 -52 155 -116z"/>
<path d="M39681 1993 c1 -32 3 -49 6 -38 20 85 21 95 7 95 -10 0 -14 -14 -13
-57z"/>
<path d="M39871 1968 c1 -69 3 -76 9 -43 17 93 19 125 4 125 -11 0 -14 -18
-13 -82z"/>
<path d="M40055 1830 c-10 -121 -16 -222 -14 -223 2 -2 58 -44 124 -93 66 -50
125 -93 131 -97 7 -4 57 31 113 78 56 47 106 85 112 85 18 0 194 91 217 113
18 16 36 22 72 22 54 0 89 -24 110 -76 9 -21 19 -29 37 -29 13 0 26 -7 30 -17
13 -38 36 -53 79 -53 42 0 42 0 49 43 13 83 66 313 90 390 l23 77 -577 0 -578
0 -18 -220z"/>
<path d="M41342 1973 c-18 -115 -32 -252 -31 -303 1 -36 10 -12 45 125 25 94
47 189 51 213 5 41 5 42 -24 42 -29 0 -30 -1 -41 -77z"/>
<path d="M41496 2003 c-25 -72 -18 -95 9 -33 26 59 30 80 16 80 -5 0 -16 -21
-25 -47z"/>
<path d="M41755 2028 c-28 -125 -28 -160 1 -62 9 33 19 65 21 72 3 6 0 12 -6
12 -6 0 -13 -10 -16 -22z"/>
<path d="M41937 1995 c-10 -33 -20 -66 -23 -73 -2 -8 2 -12 8 -10 22 7 39 56
36 101 l-3 42 -18 -60z"/>
<path d="M43230 2046 c0 -2 11 -6 25 -8 14 -3 25 -1 25 3 0 5 -11 9 -25 9 -14
0 -25 -2 -25 -4z"/>
<path d="M43751 2046 c15 -15 353 -235 356 -232 9 8 -324 236 -346 236 -8 0
-12 -2 -10 -4z"/>
<path d="M44485 2004 c-6 -41 -2 -65 9 -53 9 10 16 99 8 99 -5 0 -13 -21 -17
-46z"/>
<path d="M44670 2010 c0 -50 26 -46 32 6 3 28 1 34 -14 34 -14 0 -18 -8 -18
-40z"/>
<path d="M45827 2037 c4 -8 39 -50 78 -95 62 -73 71 -79 77 -61 6 17 -5 35
-59 95 -38 42 -74 74 -85 74 -13 0 -17 -4 -11 -13z"/>
<path d="M46570 2039 c0 -5 5 -7 10 -4 6 3 10 8 10 11 0 2 -4 4 -10 4 -5 0
-10 -5 -10 -11z"/>
<path d="M46740 1998 c-6 -29 -14 -62 -17 -73 l-5 -20 20 20 c21 21 40 125 23
125 -5 0 -14 -24 -21 -52z"/>
<path d="M48040 2046 c0 -2 9 -6 20 -9 11 -3 20 -1 20 4 0 5 -9 9 -20 9 -11 0
-20 -2 -20 -4z"/>
<path d="M48720 1934 c96 -64 178 -118 183 -120 4 -3 7 -3 7 0 0 4 -180 135
-282 204 -26 18 -55 32 -65 32 -10 0 61 -52 157 -116z"/>
<path d="M49291 1993 c1 -48 3 -53 9 -28 11 45 11 85 0 85 -6 0 -9 -25 -9 -57z"/>
<path d="M49480 2008 c0 -47 14 -41 23 10 5 24 3 32 -8 32 -11 0 -15 -12 -15
-42z"/>
<path d="M51370 2039 c0 -5 5 -7 10 -4 6 3 10 8 10 11 0 2 -4 4 -10 4 -5 0
-10 -5 -10 -11z"/>
<path d="M51540 1993 c-7 -32 -15 -64 -18 -73 -3 -10 2 -9 16 5 12 12 23 40
27 73 9 72 -10 68 -25 -5z"/>
<path d="M52840 2046 c0 -2 9 -6 20 -9 11 -3 20 -1 20 4 0 5 -9 9 -20 9 -11 0
-20 -2 -20 -4z"/>
<path d="M46296 1994 c-3 -9 -6 -25 -6 -37 1 -21 1 -21 15 3 8 14 14 31 15 38
0 17 -17 15 -24 -4z"/>
<path d="M50682 1998 c-7 -9 -3 -21 14 -43 20 -24 26 -27 33 -16 7 10 3 24
-10 43 -23 32 -23 32 -37 16z"/>
<path d="M51096 1988 c-10 -40 -6 -54 9 -28 8 14 14 31 15 38 0 21 -17 13 -24
-10z"/>
<path d="M45384 1862 c-279 -197 -444 -317 -443 -322 0 -3 38 -33 84 -68 l85
-64 72 60 c40 33 84 71 97 86 14 14 33 26 42 26 20 0 180 82 218 111 61 48
150 28 179 -41 12 -29 23 -40 39 -40 13 0 28 -12 42 -35 16 -28 27 -35 51 -35
l31 0 -48 63 c-47 61 -265 330 -287 354 -8 9 -47 -14 -162 -95z"/>
<path d="M33515 1877 c-135 -42 -141 -45 -134 -51 2 -2 42 7 89 21 47 13 109
31 138 39 28 8 52 19 52 24 0 13 3 14 -145 -33z"/>
<path d="M38228 1847 c-21 -6 -38 -14 -38 -18 0 -5 21 -2 46 6 77 23 70 34 -8
12z"/>
<path d="M43040 1848 c-19 -5 -39 -14 -45 -20 -7 -8 -4 -9 10 -4 11 4 32 10
48 13 15 3 30 10 33 14 6 11 0 10 -46 -3z"/>
<path d="M47838 1847 c-21 -6 -38 -14 -38 -18 0 -5 21 -2 46 6 77 23 70 34 -8
12z"/>
<path d="M52638 1847 c-21 -6 -38 -14 -38 -18 0 -5 21 -2 46 6 77 23 70 34 -8
12z"/>
<path d="M41771 1778 c-23 -81 -24 -83 -13 -73 10 11 35 105 29 111 -2 2 -9
-15 -16 -38z"/>
<path d="M46421 1774 c0 -11 3 -14 6 -6 3 7 2 16 -1 19 -3 4 -6 -2 -5 -13z"/>
<path d="M41579 1619 c-27 -113 -32 -149 -22 -149 7 0 13 4 13 8 0 5 11 71 25
147 14 75 25 139 23 140 -2 2 -19 -64 -39 -146z"/>
<path d="M33605 1723 c-27 -8 -60 -17 -73 -20 -20 -5 -49 -39 -40 -48 2 -2 39
5 83 15 44 11 81 19 83 20 1 0 2 -6 2 -13 0 -20 98 -63 112 -49 8 8 1 12 -25
17 -43 8 -60 26 -61 63 -1 33 -15 35 -81 15z"/>
<path d="M38468 1723 c-8 -39 4 -60 48 -81 49 -24 64 -27 64 -13 0 5 -13 12
-29 16 -37 8 -62 36 -59 65 4 27 -19 39 -24 13z"/>
<path d="M43278 1722 c-8 -38 5 -63 43 -82 21 -11 45 -20 54 -20 29 0 15 16
-27 31 -39 13 -43 17 -42 46 2 34 -22 54 -28 25z"/>
<path d="M48078 1723 c-8 -39 4 -60 48 -81 49 -24 64 -27 64 -13 0 5 -13 12
-29 16 -37 8 -62 36 -59 65 4 27 -19 39 -24 13z"/>
<path d="M50507 1720 c-14 -21 -14 -25 1 -46 l17 -23 14 30 c13 26 13 31 -1
45 -14 14 -17 14 -31 -6z"/>
<path d="M46120 1713 c0 -13 5 -23 10 -23 13 0 13 11 0 30 -8 12 -10 11 -10
-7z"/>
<path d="M50920 1713 c0 -12 5 -25 10 -28 13 -8 13 15 0 35 -8 12 -10 11 -10
-7z"/>
<path d="M50640 1555 c-11 -13 -8 -15 15 -15 23 0 26 2 15 15 -7 8 -14 15 -15
15 -1 0 -8 -7 -15 -15z"/>
<path d="M33660 1536 c0 -7 11 -16 25 -18 28 -6 36 16 9 26 -24 9 -34 7 -34
-8z"/>
<path d="M38470 1536 c0 -7 11 -16 25 -18 27 -6 32 1 13 20 -16 16 -38 15 -38
-2z"/>
<path d="M43280 1536 c0 -16 37 -29 45 -16 3 5 -3 14 -14 19 -26 14 -31 14
-31 -3z"/>
<path d="M48080 1536 c0 -7 11 -16 25 -18 27 -6 32 1 13 20 -16 16 -38 15 -38
-2z"/>
<path d="M33660 1374 c0 -22 3 -24 23 -18 32 9 33 12 11 29 -27 21 -34 18 -34
-11z"/>
<path d="M38470 1374 c0 -22 3 -24 23 -18 32 9 33 12 11 29 -27 21 -34 18 -34
-11z"/>
<path d="M43280 1374 c0 -20 4 -25 16 -20 9 3 20 6 25 6 14 0 1 18 -22 30 -17
9 -19 7 -19 -16z"/>
<path d="M48080 1370 c0 -31 2 -31 49 -2 6 3 -31 31 -41 32 -5 0 -8 -14 -8
-30z"/>
<path d="M22363 1363 c9 -2 23 -2 30 0 6 3 -1 5 -18 5 -16 0 -22 -2 -12 -5z"/>
<path d="M27173 1363 c9 -2 23 -2 30 0 6 3 -1 5 -18 5 -16 0 -22 -2 -12 -5z"/>
<path d="M2440 1188 c0 -16 5 -28 10 -28 13 0 13 20 0 40 -8 12 -10 9 -10 -12z"/>
<path d="M24740 1170 c0 -12 37 -12 65 0 15 7 10 9 -22 9 -24 1 -43 -3 -43 -9z"/>
<path d="M2128 1164 c-5 -4 -8 -23 -8 -43 0 -25 3 -32 11 -24 6 6 9 25 7 43
-2 17 -6 28 -10 24z"/>
<path d="M24240 1124 l-65 -13 65 6 c36 3 69 9 75 14 11 11 10 11 -75 -7z"/>
<path d="M29050 1124 l-65 -13 65 5 c36 3 69 10 75 15 11 11 10 11 -75 -7z"/>
<path d="M20640 1050 c36 -4 94 -8 130 -8 60 0 62 1 25 9 -22 4 -80 7 -130 7
l-90 -1 65 -7z"/>
<path d="M25450 1050 c36 -4 94 -8 130 -8 60 0 62 1 25 9 -22 4 -80 7 -130 7
l-90 -1 65 -7z"/>
<path d="M33640 1030 c0 -5 5 -10 10 -10 6 0 10 5 10 10 0 6 -4 10 -10 10 -5
0 -10 -4 -10 -10z"/>
<path d="M22170 851 c0 -13 3 -13 98 -15 39 -1 72 2 72 6 0 5 -21 8 -47 8 -27
0 -65 3 -85 6 -25 5 -38 3 -38 -5z"/>
<path d="M24235 790 c-7 -12 12 -12 40 0 18 8 17 9 -7 9 -15 1 -30 -3 -33 -9z"/>
<path d="M29045 790 c-7 -12 12 -12 40 0 18 8 17 9 -7 9 -15 1 -30 -3 -33 -9z"/>
<path d="M28850 775 c0 -18 8 -18 40 0 l25 14 -32 1 c-23 0 -33 -5 -33 -15z"/>
<path d="M28741 716 c11 -12 109 -44 109 -37 0 5 -21 16 -47 25 -45 16 -71 20
-62 12z"/>
<path d="M33551 716 c12 -12 109 -44 109 -36 0 5 -23 16 -52 25 -54 16 -64 18
-57 11z"/>
<path d="M38375 712 c18 -16 95 -42 95 -32 0 6 -1 10 -2 10 -2 0 -25 7 -53 15
-27 9 -45 11 -40 7z"/>
<path d="M43219 694 c61 -27 61 -27 61 -14 0 8 -92 41 -109 39 -3 0 18 -11 48
-25z"/>
<path d="M47985 712 c18 -16 95 -42 95 -32 0 6 -1 10 -2 10 -2 0 -25 7 -53 15
-27 9 -45 11 -40 7z"/>
<path d="M52785 712 c18 -16 95 -42 95 -32 0 6 -1 10 -2 10 -2 0 -25 7 -53 15
-27 9 -45 11 -40 7z"/>
<path d="M22310 590 c0 -11 5 -20 10 -20 6 0 10 9 10 20 0 11 -4 20 -10 20 -5
0 -10 -9 -10 -20z"/>
<path d="M24738 593 c7 -3 16 -2 19 1 4 3 -2 6 -13 5 -11 0 -14 -3 -6 -6z"/>
<path d="M24603 583 c9 -2 23 -2 30 0 6 3 -1 5 -18 5 -16 0 -22 -2 -12 -5z"/>
<path d="M22521 556 c2 -2 33 -6 69 -9 42 -4 58 -3 45 3 -19 8 -123 14 -114 6z"/>
<path d="M27335 555 c23 -8 83 -10 79 -3 -3 4 -24 8 -47 7 -23 0 -37 -2 -32
-4z"/>
<path d="M2225 510 c-3 -5 -8 -37 -11 -72 -5 -60 -3 -68 41 -158 26 -52 59
-132 75 -178 l28 -83 17 95 c26 142 18 232 -27 329 l-37 77 -40 0 c-22 0 -42
-4 -46 -10z"/>
<path d="M28728 483 c7 -3 16 -2 19 1 4 3 -2 6 -13 5 -11 0 -14 -3 -6 -6z"/>
<path d="M33538 483 c7 -3 16 -2 19 1 4 3 -2 6 -13 5 -11 0 -14 -3 -6 -6z"/>
<path d="M24720 454 l-75 -24 70 6 c70 6 90 14 84 32 -2 5 -37 -1 -79 -14z"/>
<path d="M27581 471 c0 -3 14 -17 32 -31 28 -22 40 -25 112 -24 45 0 90 6 101
12 14 8 15 12 4 12 -8 0 -68 9 -132 19 -65 10 -118 15 -117 12z"/>
<path d="M28205 335 c108 -25 203 -41 195 -31 -14 14 -200 56 -245 55 -47 -1
-44 -2 50 -24z"/>
<path d="M28805 336 c43 -14 51 -13 40 3 -3 6 -23 11 -43 10 l-37 -1 40 -12z"/>
<path d="M28700 251 c0 -9 20 -13 118 -24 45 -5 27 8 -30 22 -57 13 -88 14
-88 2z"/>
<path d="M28827 139 c6 -8 13 -27 16 -44 4 -23 4 -20 3 9 -1 25 -6 41 -16 44
-12 4 -13 2 -3 -9z"/>
<path d="M20638 103 c12 -2 32 -2 45 0 12 2 2 4 -23 4 -25 0 -35 -2 -22 -4z"/>
<path d="M27197 14 c4 -11 27 -14 97 -13 99 1 79 12 -41 22 -50 4 -61 2 -56
-9z"/>
<path d="M28630 21 c0 -15 28 -21 88 -20 l57 1 -60 14 c-72 16 -85 17 -85 5z"/>
<path d="M32003 16 c2 -7 40 -12 93 -13 63 -1 80 1 59 7 -49 14 -156 18 -152
6z"/>
<path d="M33440 21 c0 -15 28 -21 88 -20 l57 1 -60 14 c-72 16 -85 17 -85 5z"/>
<path d="M28830 10 c-13 -8 -12 -10 3 -10 9 0 17 5 17 10 0 12 -1 12 -20 0z"/>
<path d="M33640 10 c-13 -8 -12 -10 3 -10 9 0 17 5 17 10 0 12 -1 12 -20 0z"/>
<path d="M36920 10 c0 -5 12 -10 28 -10 21 0 24 2 12 10 -20 13 -40 13 -40 0z"/>
<path d="M38455 10 c-3 -5 -1 -10 4 -10 6 0 11 5 11 10 0 6 -2 10 -4 10 -3 0
-8 -4 -11 -10z"/>
<path d="M41620 9 c0 -5 5 -7 10 -4 6 3 10 8 10 11 0 2 -4 4 -10 4 -5 0 -10
-5 -10 -11z"/>
<path d="M41725 10 c-4 -6 5 -10 20 -10 15 0 24 4 20 10 -8 13 -32 13 -40 0z"/>
<path d="M46530 10 c0 -5 12 -10 28 -10 21 0 24 2 12 10 -20 13 -40 13 -40 0z"/>
<path d="M48065 10 c-3 -5 -1 -10 4 -10 6 0 11 5 11 10 0 6 -2 10 -4 10 -3 0
-8 -4 -11 -10z"/>
<path d="M51230 9 c0 -5 5 -7 10 -4 6 3 10 8 10 11 0 2 -4 4 -10 4 -5 0 -10
-5 -10 -11z"/>
<path d="M51335 10 c-4 -6 5 -10 20 -10 15 0 24 4 20 10 -8 13 -32 13 -40 0z"/>
<path d="M52865 10 c-3 -5 -1 -10 4 -10 6 0 11 5 11 10 0 6 -2 10 -4 10 -3 0
-8 -4 -11 -10z"/>
</g>
</svg>
